<svg width="25" height="20" viewBox="0 0 25 20" fill="none" xmlns="http://www.w3.org/2000/svg">
<path d="M24.3056 0C24.2292 0 24.1597 0.00555566 24.0903 0.0277779L16.6667 2.33333L8.33333 0L0.506944 2.11111C0.215278 2.18889 0 2.38889 0 2.64444V19.4444C0.000530076 19.532 0.0268472 19.6182 0.0768171 19.6961C0.126787 19.774 0.199003 19.8414 0.28761 19.8928C0.376217 19.9442 0.478719 19.9782 0.586806 19.992C0.694893 20.0058 0.805522 19.999 0.909722 19.9722L8.33333 17.6667L16.6667 20L24.5 17.8944C24.7917 17.8111 25 17.6111 25 17.3556V0.555556C25 0.25 24.6875 0 24.3056 0ZM16.6667 17.7778L8.33333 15.4389V2.22222L16.6667 4.56111V17.7778Z" fill="#DDDDDD"/>
</svg>
