<svg width="12" height="12" viewBox="0 0 12 12" fill="none" xmlns="http://www.w3.org/2000/svg">
<path d="M11.0688 10.1813L8.94375 8.0625C9.62937 7.18904 10.0014 6.11041 10 5C10 4.0111 9.70676 3.0444 9.15735 2.22215C8.60794 1.39991 7.82705 0.759043 6.91342 0.380605C5.99979 0.00216641 4.99446 -0.0968503 4.02455 0.0960758C3.05465 0.289002 2.16373 0.765206 1.46447 1.46447C0.765206 2.16373 0.289002 3.05465 0.0960758 4.02455C-0.0968503 4.99446 0.00216641 5.99979 0.380605 6.91342C0.759043 7.82705 1.39991 8.60794 2.22215 9.15735C3.0444 9.70676 4.0111 10 5 10C6.11041 10.0014 7.18904 9.62937 8.0625 8.94375L10.1813 11.0688C10.2394 11.1273 10.3085 11.1738 10.3846 11.2056C10.4608 11.2373 10.5425 11.2536 10.625 11.2536C10.7075 11.2536 10.7892 11.2373 10.8654 11.2056C10.9415 11.1738 11.0106 11.1273 11.0688 11.0688C11.1273 11.0106 11.1738 10.9415 11.2056 10.8654C11.2373 10.7892 11.2536 10.7075 11.2536 10.625C11.2536 10.5425 11.2373 10.4608 11.2056 10.3846C11.1738 10.3085 11.1273 10.2394 11.0688 10.1813ZM1.25 5C1.25 4.25832 1.46994 3.5333 1.88199 2.91661C2.29405 2.29993 2.87972 1.81928 3.56494 1.53545C4.25016 1.25163 5.00416 1.17736 5.73159 1.32206C6.45902 1.46675 7.12721 1.8239 7.65165 2.34835C8.1761 2.8728 8.53325 3.54099 8.67795 4.26841C8.82264 4.99584 8.74838 5.74984 8.46455 6.43507C8.18072 7.12029 7.70008 7.70596 7.08339 8.11801C6.46671 8.53007 5.74168 8.75 5 8.75C4.00544 8.75 3.05161 8.35491 2.34835 7.65165C1.64509 6.94839 1.25 5.99456 1.25 5Z" fill="#ACB5C7"/>
</svg>
