<svg width="25" height="20" viewBox="0 0 25 20" fill="none" xmlns="http://www.w3.org/2000/svg">
<path id="Vector" d="M23.7497 6.25H22.7494C22.6202 5.68912 22.4006 5.15296 22.0993 4.6625L22.7994 3.9625C23.0043 3.72337 23.1113 3.41578 23.0992 3.10118C23.087 2.78659 22.9566 2.48816 22.7339 2.26555C22.5112 2.04293 22.2127 1.91251 21.898 1.90036C21.5834 1.88821 21.2757 1.99522 21.0365 2.2L20.3363 2.9C19.8457 2.59877 19.3095 2.37924 18.7484 2.25V1.25C18.7484 0.918479 18.6167 0.600537 18.3822 0.366117C18.1477 0.131696 17.8297 0 17.4981 0C17.1665 0 16.8485 0.131696 16.614 0.366117C16.3795 0.600537 16.2478 0.918479 16.2478 1.25V2.25C15.6901 2.37727 15.1576 2.59697 14.6724 2.9L13.9597 2.2C13.7205 1.99522 13.4129 1.88821 13.0982 1.90036C12.7835 1.91251 12.485 2.04293 12.2624 2.26555C12.0397 2.48816 11.9092 2.78659 11.8971 3.10118C11.8849 3.41578 11.992 3.72337 12.1968 3.9625L12.897 4.675C12.7844 4.8625 12.6969 5.075 12.5969 5.275C11.954 5.09358 11.2894 5.00105 10.6214 5C8.81951 4.99898 7.07746 5.64638 5.71375 6.82383C4.35004 8.00128 3.4558 9.63011 3.19453 11.4125C2.17701 11.6978 1.29712 12.3415 0.717361 13.2248C0.137604 14.1081 -0.102851 15.1713 0.0404079 16.2181C0.183667 17.2648 0.700962 18.2244 1.49675 18.9196C2.29254 19.6147 3.31306 19.9985 4.36982 20H15.8352C17.271 20 18.6481 19.4298 19.6634 18.4147C20.6787 17.3997 21.2491 16.023 21.2491 14.5875C21.248 13.9237 21.1207 13.2662 20.874 12.65L21.0365 12.8C21.2694 13.0309 21.5837 13.1611 21.9117 13.1625C22.0763 13.1635 22.2394 13.1319 22.3917 13.0697C22.5441 13.0075 22.6826 12.9159 22.7994 12.8C23.0323 12.5658 23.163 12.249 23.163 11.9187C23.163 11.5885 23.0323 11.2717 22.7994 11.0375L22.0993 10.3375C22.4006 9.84704 22.6202 9.31088 22.7494 8.75H23.7497C24.0813 8.75 24.3993 8.6183 24.6338 8.38388C24.8683 8.14946 25 7.83152 25 7.5C25 7.16848 24.8683 6.85054 24.6338 6.61612C24.3993 6.3817 24.0813 6.25 23.7497 6.25ZM15.8352 17.5H4.36982C3.87242 17.5 3.39538 17.3025 3.04367 16.9508C2.69195 16.5992 2.49435 16.1223 2.49435 15.625C2.49435 15.1277 2.69195 14.6508 3.04367 14.2992C3.39538 13.9475 3.87242 13.75 4.36982 13.75C4.70143 13.75 5.01945 13.6183 5.25393 13.3839C5.48841 13.1495 5.62014 12.8315 5.62014 12.5C5.6255 11.3196 6.0484 10.1792 6.81398 9.28059C7.57957 8.38198 8.63847 7.78313 9.80325 7.59005C10.968 7.39697 12.1636 7.62209 13.1783 8.22559C14.193 8.82908 14.9614 9.77202 15.3476 10.8875C15.419 11.1023 15.5475 11.2937 15.7193 11.4412C15.891 11.5887 16.0996 11.6868 16.3228 11.725C17.0325 11.8577 17.6676 12.249 18.1051 12.8233C18.5425 13.3975 18.7511 14.1136 18.6903 14.8329C18.6296 15.5521 18.3039 16.2232 17.7764 16.716C17.2488 17.2088 16.5571 17.4882 15.8352 17.5ZM19.5861 9.5625C19.3657 9.76983 19.1122 9.93883 18.836 10.0625C18.4201 9.79183 17.9703 9.57746 17.4981 9.425C16.9237 8.17095 16.0208 7.09551 14.885 6.3125C15.0216 5.99186 15.2166 5.69939 15.4601 5.45C16.0195 4.93166 16.7541 4.64366 17.5169 4.64366C18.2796 4.64366 19.0142 4.93166 19.5736 5.45C20.1099 6.00274 20.4097 6.7425 20.4097 7.5125C20.4097 8.28251 20.1099 9.02226 19.5736 9.575L19.5861 9.5625Z" fill="#DDDDDD"/>
</svg>
